<svg width="73" height="48" viewBox="0 0 73 48" fill="none" xmlns="http://www.w3.org/2000/svg">
<rect x="1" y="0.5" width="71" height="47" rx="11.5" stroke="#D00416"/>
<path d="M41 14.625V16.5H44.375C44.6734 16.5 44.9595 16.6185 45.1705 16.8295C45.3815 17.0405 45.5 17.3266 45.5 17.625C45.5 17.9234 45.3815 18.2095 45.1705 18.4205C44.9595 18.6315 44.6734 18.75 44.375 18.75H28.625C28.3266 18.75 28.0405 18.6315 27.8295 18.4205C27.6185 18.2095 27.5 17.9234 27.5 17.625C27.5 17.3266 27.6185 17.0405 27.8295 16.8295C28.0405 16.6185 28.3266 16.5 28.625 16.5H32V14.625C32 13.176 33.176 12 34.625 12H38.375C39.824 12 41 13.176 41 14.625ZM31.244 22.0125L32.234 31.9125C32.2433 32.0051 32.2867 32.0909 32.3557 32.1532C32.4247 32.2156 32.5145 32.2501 32.6075 32.25H40.3925C40.4855 32.2501 40.5753 32.2156 40.6443 32.1532C40.7133 32.0909 40.7567 32.0051 40.766 31.9125L41.756 22.0125C41.7932 21.7219 41.9423 21.4573 42.1715 21.2749C42.4008 21.0925 42.6922 21.0068 42.9837 21.0359C43.2752 21.065 43.5439 21.2067 43.7325 21.4308C43.9212 21.6549 44.015 21.9438 43.994 22.236L43.004 32.136C42.9393 32.7837 42.6362 33.3842 42.1537 33.8211C41.6711 34.2579 41.0434 34.4999 40.3925 34.5H32.6075C31.9568 34.4999 31.3293 34.2582 30.8468 33.8216C30.3643 33.3851 30.0611 32.7849 29.996 32.1375L29.006 22.2375C28.9872 22.0886 28.9984 21.9373 29.039 21.7928C29.0795 21.6483 29.1486 21.5133 29.2422 21.3959C29.3357 21.2784 29.4518 21.1809 29.5836 21.109C29.7154 21.0371 29.8602 20.9924 30.0096 20.9774C30.159 20.9623 30.3099 20.9774 30.4533 21.0216C30.5968 21.0658 30.73 21.1382 30.845 21.2347C30.9601 21.3312 31.0546 21.4497 31.1232 21.5833C31.1917 21.7168 31.2328 21.8628 31.244 22.0125ZM34.25 14.625V16.5H38.75V14.625C38.75 14.5255 38.7105 14.4302 38.6402 14.3598C38.5698 14.2895 38.4745 14.25 38.375 14.25H34.625C34.5255 14.25 34.4302 14.2895 34.3598 14.3598C34.2895 14.4302 34.25 14.5255 34.25 14.625Z" fill="#D00416"/>
</svg>
