<svg width="73" height="48" viewBox="0 0 73 48" fill="none" xmlns="http://www.w3.org/2000/svg">
<rect x="1" y="0.5" width="71" height="47" rx="11.5" stroke="#1FC16B"/>
<path fill-rule="evenodd" clip-rule="evenodd" d="M26.5 18.857C26.5 17.5688 27.0117 16.3334 27.9226 15.4226C28.8334 14.5117 30.0688 14 31.357 14H36.5C36.7652 14 37.0196 14.1054 37.2071 14.2929C37.3946 14.4804 37.5 14.7348 37.5 15C37.5 15.2652 37.3946 15.5196 37.2071 15.7071C37.0196 15.8946 36.7652 16 36.5 16H31.357C30.5993 16 29.8726 16.301 29.3368 16.8368C28.801 17.3726 28.5 18.0993 28.5 18.857V29.143C28.5 29.9007 28.801 30.6274 29.3368 31.1632C29.8726 31.699 30.5993 32 31.357 32H41.643C42.4007 32 43.1274 31.699 43.6632 31.1632C44.199 30.6274 44.5 29.9007 44.5 29.143V24C44.5 23.7348 44.6054 23.4804 44.7929 23.2929C44.9804 23.1054 45.2348 23 45.5 23C45.7652 23 46.0196 23.1054 46.2071 23.2929C46.3946 23.4804 46.5 23.7348 46.5 24V29.143C46.5 30.4312 45.9883 31.6666 45.0774 32.5774C44.1666 33.4883 42.9312 34 41.643 34H31.357C30.0688 34 28.8334 33.4883 27.9226 32.5774C27.0117 31.6666 26.5 30.4312 26.5 29.143V18.857Z" fill="#1FC16B"/>
<path fill-rule="evenodd" clip-rule="evenodd" d="M39.637 25.2189L37.432 26.5489L36.399 24.8359L38.604 23.5059L38.607 23.5039C38.6915 23.453 38.7694 23.3918 38.839 23.3219L43.849 18.2859C43.8992 18.2353 43.9475 18.1829 43.994 18.1289C44.325 17.7429 44.815 16.9789 44.222 16.3829C43.721 15.8789 43.003 16.3549 42.538 16.7639C42.4133 16.8738 42.2932 16.9889 42.178 17.1089L42.144 17.1429L37.204 22.1079C37.0867 22.2245 36.9948 22.364 36.934 22.5179L36.11 24.5909C36.0944 24.6299 36.0914 24.6728 36.1016 24.7136C36.1117 24.7544 36.1345 24.7909 36.1666 24.818C36.1987 24.8451 36.2385 24.8614 36.2804 24.8647C36.3223 24.8679 36.3631 24.8578 36.399 24.8359L37.432 26.5489C35.627 27.6369 33.472 25.8089 34.252 23.8509L35.077 21.7789C35.2376 21.374 35.4792 21.0061 35.787 20.6979L40.726 15.7319L40.755 15.7029C40.902 15.5529 41.396 15.0469 41.995 14.6829C42.322 14.4859 42.844 14.2249 43.489 14.1749C44.229 14.1159 45.019 14.3489 45.639 14.9719C46.1135 15.4406 46.412 16.0587 46.484 16.7219C46.5335 17.2388 46.4545 17.7599 46.254 18.2389C45.964 18.9559 45.48 19.4829 45.267 19.6959L40.257 24.7319C40.0703 24.9192 39.8637 25.0815 39.637 25.2189ZM44.09 18.0929C44.09 18.0929 44.086 18.0959 44.077 18.0989L44.09 18.0929Z" fill="#1FC16B"/>
</svg>
