<svg width="28" height="28" viewBox="0 0 28 28" fill="none" xmlns="http://www.w3.org/2000/svg">
<path fill-rule="evenodd" clip-rule="evenodd" d="M7.16844 2.47825C5.54231 2.69684 4.55118 3.11403 3.81655 3.84866C3.08196 4.58325 2.66475 5.57467 2.44615 7.20103C2.22412 8.85289 2.22224 11.0217 2.22224 14.0321C2.22224 17.0432 2.22412 19.212 2.44615 20.8637C2.66473 22.4898 3.08192 23.481 3.81655 24.2156C4.55115 24.9502 5.54256 25.3674 7.16893 25.586C8.82078 25.808 10.9896 25.8099 14 25.8099C17.0111 25.8099 19.1799 25.808 20.8316 25.586C22.4577 25.3674 23.4488 24.9502 24.1835 24.2156C24.9181 23.481 25.3353 22.4896 25.5539 20.8632C25.7759 19.2114 25.7778 17.0426 25.7778 14.0321C25.7778 11.021 25.7759 8.85222 25.5539 7.20054C25.3353 5.57442 24.9181 4.58329 24.1835 3.84866C23.4489 3.11407 22.4575 2.69685 20.8311 2.47825C19.1793 2.25623 17.0105 2.25434 14 2.25434C10.9889 2.25434 8.82012 2.25623 7.16844 2.47825ZM13.9317 0.476563H14.0683C16.9958 0.476548 19.284 0.476537 21.0679 0.716318C22.8912 0.961387 24.3205 1.4715 25.4406 2.59158C26.5606 3.71162 27.0707 5.14049 27.3158 6.9637C27.5556 8.7475 27.5556 11.0357 27.5556 13.9638V14.1004C27.5556 17.0279 27.5556 19.3161 27.3158 21.1C27.0707 22.9233 26.5606 24.3526 25.4406 25.4727C24.3205 26.5927 22.8916 27.1028 21.0684 27.3479C19.2846 27.5877 16.9964 27.5877 14.0683 27.5877H13.9317C11.0042 27.5877 8.71607 27.5877 6.9321 27.3479C5.1088 27.1029 3.67955 26.5927 2.55947 25.4727C1.43944 24.3526 0.929295 22.9238 0.684215 21.1005C0.444433 19.3167 0.444444 17.0286 0.444458 14.1004V13.9639C0.444444 11.0364 0.444433 8.74818 0.684214 6.96421C0.929283 5.1409 1.4394 3.71166 2.55947 2.59158C3.67951 1.47154 5.10838 0.9614 6.93159 0.71632C8.7154 0.476537 11.0036 0.476548 13.9317 0.476563Z" fill="#000E10"/>
<path fill-rule="evenodd" clip-rule="evenodd" d="M20.4418 6.69895C20.4418 6.20803 20.8398 5.81006 21.3307 5.81006H21.344C21.835 5.81006 22.2329 6.20803 22.2329 6.69895C22.2329 7.18987 21.835 7.58784 21.344 7.58784H21.3307C20.8398 7.58784 20.4418 7.18987 20.4418 6.69895ZM14 8.92117C12.6445 8.92117 11.3445 9.45966 10.3859 10.4182C9.42741 11.3767 8.88892 12.6767 8.88892 14.0323C8.88892 15.3878 9.42741 16.6879 10.3859 17.6464C11.3445 18.6049 12.6445 19.1434 14 19.1434C15.3556 19.1434 16.6556 18.6049 17.6141 17.6464C18.5727 16.6879 19.1111 15.3878 19.1111 14.0323C19.1111 12.6767 18.5727 11.3767 17.6141 10.4182C16.6556 9.45966 15.3556 8.92117 14 8.92117ZM9.12885 9.1611C10.4208 7.86918 12.173 7.14339 14 7.14339C15.8271 7.14339 17.5793 7.86918 18.8712 9.1611C20.1631 10.453 20.8889 12.2052 20.8889 14.0323C20.8889 15.8593 20.1631 17.6115 18.8712 18.9035C17.5793 20.1954 15.8271 20.9212 14 20.9212C12.173 20.9212 10.4208 20.1954 9.12885 18.9035C7.83694 17.6115 7.11115 15.8593 7.11115 14.0323C7.11115 12.2052 7.83694 10.453 9.12885 9.1611Z" fill="#000E10"/>
</svg>
