<svg width="28" height="34" viewBox="0 0 28 34" fill="none" xmlns="http://www.w3.org/2000/svg">
<path fill-rule="evenodd" clip-rule="evenodd" d="M13.9994 11.3751C16.2376 11.3727 18.4755 11.4226 20.7114 11.5248L20.7114 11.5248C23.7997 11.666 26.3054 14.0576 26.7129 17.0824C26.9355 18.7331 27.125 20.4673 27.125 22.2501C27.125 24.0328 26.9355 25.7671 26.7129 27.4178C26.3055 30.4422 23.8001 32.8341 20.7116 32.9739C18.5696 33.0737 16.3939 33.1251 14 33.1251C11.6058 33.1251 9.43007 33.0737 7.28841 32.9754L7.34 31.8516L7.28861 32.9754C7.28855 32.9754 7.28848 32.9754 7.28841 32.9754C4.20024 32.8341 1.69467 30.4426 1.28709 27.4179L2.40198 27.2676L1.28707 27.4178C1.06446 25.7671 0.875 24.0328 0.875 22.2501C0.875 20.4676 1.06287 18.7336 1.28723 17.0812C1.69519 14.0574 4.20028 11.666 7.28845 11.5263C9.4302 11.4265 11.6058 11.3751 13.9994 11.3751ZM13.9994 11.3751C13.9996 11.3751 13.9998 11.3751 14 11.3751V12.4998L13.9988 11.3751C13.999 11.3751 13.9992 11.3751 13.9994 11.3751ZM20.6086 13.7724C18.4076 13.6718 16.2045 13.6227 14.0012 13.6251L14 13.6251C11.6392 13.6251 9.49819 13.6757 7.39238 13.7739L7.39072 13.7739C5.42766 13.8625 3.78441 15.3975 3.51693 17.3828L3.51677 17.3839C3.29713 19.0016 3.125 20.6185 3.125 22.2501C3.125 23.8813 3.29853 25.498 3.51691 27.1172L3.51693 27.1174C3.7844 29.1026 5.4277 30.638 7.39139 30.7278L7.39159 30.7278C9.49793 30.8245 11.6392 30.8751 14 30.8751C16.3608 30.8751 18.5018 30.8245 20.6076 30.7263L20.6093 30.7262C22.5723 30.6376 24.2156 29.1027 24.4831 27.1174L24.4831 27.1172C24.7015 25.498 24.875 23.8813 24.875 22.2501C24.875 20.6189 24.7015 19.0022 24.4831 17.3829L24.4831 17.3828C24.2156 15.3976 22.5723 13.8622 20.6086 13.7724ZM20.6086 13.7724L20.66 12.6486L20.6086 13.7724Z" fill="#333333"/>
<path fill-rule="evenodd" clip-rule="evenodd" d="M14 3.125C12.5082 3.125 11.0774 3.71763 10.0225 4.77252C8.96763 5.82742 8.375 7.25816 8.375 8.75V12.5C8.375 13.1213 7.87132 13.625 7.25 13.625C6.62868 13.625 6.125 13.1213 6.125 12.5V8.75C6.125 6.66142 6.95469 4.65838 8.43153 3.18153C9.90838 1.70469 11.9114 0.875 14 0.875C16.0886 0.875 18.0916 1.70469 19.5685 3.18153C21.0453 4.65838 21.875 6.66142 21.875 8.75V12.5C21.875 13.1213 21.3713 13.625 20.75 13.625C20.1287 13.625 19.625 13.1213 19.625 12.5V8.75C19.625 7.25816 19.0324 5.82742 17.9775 4.77252C16.9226 3.71763 15.4918 3.125 14 3.125ZM8 21.11C8.62132 21.11 9.125 21.6137 9.125 22.235V22.25C9.125 22.8713 8.62132 23.375 8 23.375C7.37868 23.375 6.875 22.8713 6.875 22.25V22.235C6.875 21.6137 7.37868 21.11 8 21.11ZM14 21.11C14.6213 21.11 15.125 21.6137 15.125 22.235V22.25C15.125 22.8713 14.6213 23.375 14 23.375C13.3787 23.375 12.875 22.8713 12.875 22.25V22.235C12.875 21.6137 13.3787 21.11 14 21.11ZM20 21.11C20.6213 21.11 21.125 21.6137 21.125 22.235V22.25C21.125 22.8713 20.6213 23.375 20 23.375C19.3787 23.375 18.875 22.8713 18.875 22.25V22.235C18.875 21.6137 19.3787 21.11 20 21.11Z" fill="#333333"/>
</svg>
