<svg width="32" height="32" viewBox="0 0 32 32" fill="none" xmlns="http://www.w3.org/2000/svg">
<path d="M16.7469 27.76C16.5293 27.9163 16.2681 28.0003 16.0002 28.0003C15.7323 28.0003 15.4712 27.9163 15.2536 27.76C8.81489 23.1707 1.98156 13.7307 8.88956 6.90933C10.786 5.0438 13.34 3.99883 16.0002 4C18.6669 4 21.2256 5.04667 23.1109 6.908C30.0189 13.7293 23.1856 23.168 16.7469 27.76Z" stroke="#000E10" stroke-width="1.5" stroke-linecap="round" stroke-linejoin="round"/>
<path d="M16.0002 16C16.7075 16 17.3857 15.719 17.8858 15.219C18.3859 14.7189 18.6669 14.0406 18.6669 13.3333C18.6669 12.6261 18.3859 11.9478 17.8858 11.4477C17.3857 10.9476 16.7075 10.6667 16.0002 10.6667C15.293 10.6667 14.6147 10.9476 14.1146 11.4477C13.6145 11.9478 13.3336 12.6261 13.3336 13.3333C13.3336 14.0406 13.6145 14.7189 14.1146 15.219C14.6147 15.719 15.293 16 16.0002 16Z" stroke="#000E10" stroke-width="1.5" stroke-linecap="round" stroke-linejoin="round"/>
</svg>
