<svg width="36" height="36" viewBox="0 0 36 36" fill="none" xmlns="http://www.w3.org/2000/svg">
<path fill-rule="evenodd" clip-rule="evenodd" d="M6.7045 6.7045C7.14384 6.26517 7.85616 6.26517 8.2955 6.7045L18 16.409L27.7045 6.7045C28.1438 6.26517 28.8562 6.26517 29.2955 6.7045C29.7348 7.14384 29.7348 7.85616 29.2955 8.2955L19.591 18L29.2955 27.7045C29.7348 28.1438 29.7348 28.8562 29.2955 29.2955C28.8562 29.7348 28.1438 29.7348 27.7045 29.2955L18 19.591L8.2955 29.2955C7.85616 29.7348 7.14384 29.7348 6.7045 29.2955C6.26517 28.8562 6.26517 28.1438 6.7045 27.7045L16.409 18L6.7045 8.2955C6.26517 7.85616 6.26517 7.14384 6.7045 6.7045Z" fill="#000E10"/>
</svg>
