<svg width="36" height="36" viewBox="0 0 36 36" fill="none" xmlns="http://www.w3.org/2000/svg">
<path fill-rule="evenodd" clip-rule="evenodd" d="M18 1.875C14.9169 1.875 11.96 3.09977 9.77989 5.27988C7.59978 7.45999 6.375 10.4169 6.375 13.5V14.556C6.37492 15.6013 6.06542 16.6233 5.4855 17.493L3.765 20.0775C1.764 23.0775 3.291 27.1545 6.7695 28.1025C7.9025 28.4115 9.0445 28.673 10.1955 28.887L10.1985 28.8945C11.3505 31.9725 14.433 34.125 18 34.125C21.567 34.125 24.6495 31.9725 25.803 28.8945L25.806 28.887C26.9581 28.6718 28.101 28.41 29.232 28.1025C32.7105 27.1545 34.2375 23.0775 32.2365 20.0775L30.5145 17.493C29.9346 16.6233 29.6251 15.6013 29.625 14.556V13.5C29.625 10.4169 28.4002 7.45999 26.2201 5.27988C24.04 3.09977 21.0831 1.875 18 1.875ZM23.064 29.3055C19.6994 29.7069 16.2991 29.7069 12.9345 29.3055C14.001 30.837 15.8565 31.875 18 31.875C20.1435 31.875 21.9975 30.837 23.064 29.3055ZM8.625 13.5C8.625 11.0136 9.61272 8.62903 11.3709 6.87087C13.129 5.11272 15.5136 4.125 18 4.125C20.4864 4.125 22.871 5.11272 24.6291 6.87087C26.3873 8.62903 27.375 11.0136 27.375 13.5V14.556C27.375 16.0455 27.816 17.502 28.6425 18.741L30.3645 21.3255C30.6313 21.7251 30.7993 22.1824 30.8546 22.6598C30.9098 23.1371 30.8507 23.6207 30.6822 24.0707C30.5137 24.5207 30.2406 24.9242 29.8854 25.2478C29.5302 25.5714 29.1032 25.8059 28.6395 25.932C21.6732 27.8319 14.3253 27.8319 7.359 25.932C6.89556 25.8059 6.46873 25.5714 6.11374 25.2478C5.75874 24.9243 5.48574 24.521 5.31726 24.0712C5.14877 23.6215 5.08962 23.1381 5.1447 22.6609C5.19977 22.1838 5.36748 21.7266 5.634 21.327L7.359 18.741C8.18481 17.5015 8.62531 16.0454 8.625 14.556V13.5Z" fill="#000E10"/>
</svg>
