<svg width="32" height="32" viewBox="0 0 32 32" fill="none" xmlns="http://www.w3.org/2000/svg">
<path d="M6.66666 6.6665H24C25.0609 6.6665 26.0783 7.08793 26.8284 7.83808C27.5786 8.58822 28 9.60564 28 10.6665V22.6665C28 23.7274 27.5786 24.7448 26.8284 25.4949C26.0783 26.2451 25.0609 26.6665 24 26.6665H6.66666C5.60579 26.6665 4.58838 26.2451 3.83823 25.4949C3.08808 24.7448 2.66666 23.7274 2.66666 22.6665V10.6665C2.66666 9.60564 3.08808 8.58822 3.83823 7.83808C4.58838 7.08793 5.60579 6.6665 6.66666 6.6665ZM6.66666 7.99984C5.99999 7.99984 5.41332 8.2265 4.95999 8.6265L15.3333 15.3332L25.7067 8.6265C25.2533 8.2265 24.6667 7.99984 24 7.99984H6.66666ZM15.3333 16.9465L4.17332 9.7065C4.06666 9.99984 3.99999 10.3332 3.99999 10.6665V22.6665C3.99999 23.3737 4.28094 24.052 4.78104 24.5521C5.28114 25.0522 5.95941 25.3332 6.66666 25.3332H24C24.7072 25.3332 25.3855 25.0522 25.8856 24.5521C26.3857 24.052 26.6667 23.3737 26.6667 22.6665V10.6665C26.6667 10.3332 26.6 9.99984 26.4933 9.7065L15.3333 16.9465Z" fill="#000E10"/>
</svg>
